<?xml version="1.0" standalone="no"?>
<!DOCTYPE svg PUBLIC "-//W3C//DTD SVG 20010904//EN"
 "http://www.w3.org/TR/2001/REC-SVG-20010904/DTD/svg10.dtd">
<svg version="1.0" xmlns="http://www.w3.org/2000/svg"
 width="643.000000pt" height="605.000000pt" viewBox="0 0 643.000000 605.000000"
 preserveAspectRatio="xMidYMid meet">
<metadata>
Created by potrace 1.16, written by Peter Selinger 2001-2019
</metadata>
<g transform="translate(0.000000,605.000000) scale(0.100000,-0.100000)"
fill="#000000" stroke="none">
<path d="M3305 5324 c-241 -42 -473 -158 -635 -316 -79 -76 -130 -145 -194
-260 -21 -38 -44 -68 -51 -68 -7 0 -39 12 -70 26 -199 87 -447 32 -576 -128
-66 -83 -88 -143 -100 -281 l-12 -127 -115 -56 c-96 -46 -125 -66 -186 -127
-165 -166 -228 -325 -229 -577 0 -173 36 -301 122 -433 197 -301 441 -437 816
-455 83 -4 659 -5 1280 -1 1243 7 1176 4 1373 72 123 41 221 106 332 217 106
106 174 217 221 360 32 100 34 112 34 250 0 173 -13 230 -84 375 -111 224
-265 350 -502 410 -57 15 -109 31 -115 36 -6 5 -14 57 -17 117 -6 114 -31 226
-73 319 -68 156 -242 360 -393 462 -242 165 -551 234 -826 185z m0 -753 c17
-10 181 -169 367 -352 341 -339 362 -364 338 -409 -13 -24 -37 -28 -240 -36
l-165 -6 0 -415 0 -416 -25 -18 c-23 -17 -53 -18 -339 -20 l-314 -2 -29 32
-28 31 0 379 c0 208 -3 393 -6 410 l-6 31 -184 0 c-178 0 -183 1 -198 22 -9
12 -16 29 -16 36 0 18 76 115 137 174 532 520 496 485 561 536 61 47 99 53
147 23z"/>
</g>
</svg>
