<?xml version="1.0" standalone="no"?>
<!DOCTYPE svg PUBLIC "-//W3C//DTD SVG 20010904//EN"
 "http://www.w3.org/TR/2001/REC-SVG-20010904/DTD/svg10.dtd">
<svg version="1.0" xmlns="http://www.w3.org/2000/svg"
 width="478.000000pt" height="387.000000pt" viewBox="0 0 478.000000 387.000000"
 preserveAspectRatio="xMidYMid meet">
<metadata>
Created by potrace 1.16, written by Peter Selinger 2001-2019
</metadata>
<g transform="translate(0.000000,387.000000) scale(0.100000,-0.100000)"
fill="#000000" stroke="none">
<path d="M2450 3446 c-263 -47 -470 -150 -645 -321 -82 -80 -115 -121 -164
-204 -33 -58 -61 -109 -61 -113 0 -14 -22 -9 -100 21 -196 77 -394 38 -536
-103 -96 -96 -133 -201 -134 -374 0 -59 -2 -63 -27 -73 -122 -46 -201 -96
-284 -178 -149 -149 -214 -297 -226 -517 -11 -199 36 -370 143 -520 198 -279
433 -404 792 -422 81 -4 658 -5 1282 -1 1237 7 1167 4 1355 65 107 36 146 56
233 121 205 153 322 341 373 601 24 128 -8 337 -73 466 -76 151 -147 239 -260
319 -82 58 -114 73 -258 113 l-115 31 -2 49 c-10 186 -57 357 -135 487 -164
272 -422 462 -733 538 -105 26 -322 33 -425 15z m78 -834 c53 -50 215 -209
360 -354 231 -233 262 -268 262 -295 0 -45 -30 -63 -106 -63 -33 0 -114 -3
-180 -6 l-119 -7 0 -326 c1 -179 -1 -368 -3 -419 -5 -89 -6 -94 -32 -107 -36
-19 -624 -24 -658 -6 -51 27 -52 41 -52 461 1 215 -2 395 -5 400 -4 6 -81 10
-185 10 -149 0 -181 3 -194 16 -40 40 -9 93 150 249 229 226 413 404 469 454
136 121 154 121 293 -7z"/>
</g>
</svg>
